<svg width="304" height="201" viewBox="0 0 304 201" fill="none" xmlns="http://www.w3.org/2000/svg">
<path fill-rule="evenodd" clip-rule="evenodd" d="M118.169 149.193C91.1657 159.092 61.1403 145.173 51.2413 118.167C41.3424 91.1606 55.2606 61.1382 82.2671 51.2393C109.273 41.3403 139.299 55.2556 149.198 82.265C159.097 109.271 145.176 139.294 118.169 149.193ZM301.937 26.2781C295.547 8.84517 276.236 -0.107202 258.803 6.28607C249.337 9.75295 242.403 17.048 239.035 25.7675L239.017 25.7197C232.806 41.785 207.11 64.8169 170.518 28.7984L170.533 28.8432C143.766 2.55343 103.238 -7.62325 65.7295 6.12482C13.8487 25.1434 -12.889 82.8202 6.12662 134.701C25.1422 186.585 82.822 213.322 134.706 194.307C172.211 180.559 196.563 146.604 200.003 109.241L200.021 109.286C204.667 58.1519 239.16 59.1224 254.285 67.367L254.267 67.3222C262.47 71.8014 272.476 72.8824 281.942 69.4155C299.375 63.0252 308.327 43.711 301.937 26.2781Z" fill="#111111" fill-opacity="0.04"/>
</svg>
