<svg width="540" height="397" viewBox="0 0 540 397" fill="none" xmlns="http://www.w3.org/2000/svg">
<path opacity="0.399158" d="M246.631 390.11C249.018 390.11 250.778 388.438 250.778 386.15C250.778 383.862 249.018 382.19 246.631 382.19C244.244 382.19 242.484 383.873 242.484 386.15C242.484 388.427 244.244 390.11 246.631 390.11ZM246.631 388.856C245.08 388.856 243.925 387.723 243.925 386.15C243.925 384.577 245.08 383.444 246.631 383.444C248.182 383.444 249.337 384.577 249.337 386.15C249.337 387.723 248.182 388.856 246.631 388.856ZM256.342 384.126L254.461 388.482L252.635 384.126H251.205L253.724 390H255.143L257.662 384.126H256.342ZM262.833 384.126V387.096C262.833 388.273 262.184 388.867 261.227 388.867C260.358 388.867 259.852 388.361 259.852 387.294V384.126H258.477V387.481C258.477 389.252 259.5 390.077 261.007 390.077C261.766 390.077 262.459 389.791 262.899 389.252V390H264.208V384.126H262.833ZM266.008 390H267.383V381.838H266.008V390ZM271.432 384.06C270.486 384.06 269.573 384.302 268.946 384.786L269.485 385.787C269.925 385.424 270.607 385.204 271.267 385.204C272.246 385.204 272.73 385.677 272.73 386.48V386.568H271.212C269.43 386.568 268.77 387.338 268.77 388.317C268.77 389.34 269.617 390.077 270.959 390.077C271.839 390.077 272.477 389.791 272.807 389.285V390H274.105V386.557C274.105 384.863 273.126 384.06 271.432 384.06ZM271.245 389.076C270.541 389.076 270.123 388.757 270.123 388.262C270.123 387.833 270.376 387.481 271.311 387.481H272.73V388.163C272.499 388.768 271.916 389.076 271.245 389.076ZM279.016 388.702C278.807 388.867 278.532 388.944 278.246 388.944C277.718 388.944 277.432 388.636 277.432 388.064V385.27H279.005V384.17H277.432V382.828H276.057V384.17H275.089V385.27H276.057V388.097C276.057 389.395 276.794 390.077 278.081 390.077C278.576 390.077 279.071 389.945 279.401 389.681L279.016 388.702ZM281.225 383.158C281.742 383.158 282.105 382.784 282.105 382.3C282.105 381.849 281.731 381.508 281.225 381.508C280.719 381.508 280.345 381.871 280.345 382.333C280.345 382.795 280.719 383.158 281.225 383.158ZM280.532 390H281.907V384.126H280.532V390ZM286.352 390.077C288.178 390.077 289.487 388.823 289.487 387.063C289.487 385.303 288.178 384.06 286.352 384.06C284.548 384.06 283.228 385.303 283.228 387.063C283.228 388.823 284.548 390.077 286.352 390.077ZM286.352 388.9C285.362 388.9 284.614 388.185 284.614 387.063C284.614 385.941 285.362 385.226 286.352 385.226C287.353 385.226 288.101 385.941 288.101 387.063C288.101 388.185 287.353 388.9 286.352 388.9ZM294.134 384.06C293.276 384.06 292.561 384.346 292.11 384.885V384.126H290.801V390H292.176V387.03C292.176 385.853 292.836 385.259 293.815 385.259C294.695 385.259 295.212 385.765 295.212 386.81V390H296.587V386.634C296.587 384.863 295.542 384.06 294.134 384.06Z" fill="#112D35"/>
<path opacity="0.4" d="M488.502 390.11C489.767 390.11 490.845 389.659 491.56 388.823L490.636 387.943C490.075 388.559 489.382 388.856 488.579 388.856C486.984 388.856 485.829 387.734 485.829 386.15C485.829 384.566 486.984 383.444 488.579 383.444C489.382 383.444 490.075 383.741 490.636 384.346L491.56 383.477C490.845 382.641 489.767 382.19 488.513 382.19C486.148 382.19 484.388 383.851 484.388 386.15C484.388 388.449 486.148 390.11 488.502 390.11ZM496.978 384.126L495.119 388.471L493.271 384.126H491.841L494.404 390.022L494.305 390.253C494.041 390.836 493.755 391.067 493.271 391.067C492.897 391.067 492.523 390.913 492.259 390.66L491.709 391.672C492.083 392.013 492.699 392.211 493.282 392.211C494.261 392.211 495.009 391.804 495.548 390.473L498.298 384.126H496.978ZM501.692 390.077C502.836 390.077 503.749 389.582 504.2 388.702L503.144 388.086C502.792 388.647 502.264 388.9 501.681 388.9C500.669 388.9 499.899 388.207 499.899 387.063C499.899 385.93 500.669 385.226 501.681 385.226C502.264 385.226 502.792 385.479 503.144 386.04L504.2 385.424C503.749 384.533 502.836 384.06 501.692 384.06C499.833 384.06 498.513 385.303 498.513 387.063C498.513 388.823 499.833 390.077 501.692 390.077ZM505.335 390H506.71V381.838H505.335V390ZM514.036 387.096C514.036 385.259 512.782 384.06 511.066 384.06C509.317 384.06 508.03 385.314 508.03 387.063C508.03 388.812 509.306 390.077 511.275 390.077C512.287 390.077 513.112 389.747 513.64 389.12L512.903 388.273C512.485 388.702 511.968 388.911 511.308 388.911C510.285 388.911 509.57 388.361 509.405 387.503H514.014C514.025 387.371 514.036 387.206 514.036 387.096ZM511.066 385.16C511.968 385.16 512.617 385.743 512.727 386.59H509.394C509.526 385.732 510.175 385.16 511.066 385.16ZM519.959 388.801V386.678H523.677V385.501H519.959V383.499H524.15V382.3H518.529V390H524.304V388.801H519.959ZM529.099 384.06C528.241 384.06 527.526 384.346 527.075 384.885V384.126H525.766V390H527.141V387.03C527.141 385.853 527.801 385.259 528.78 385.259C529.66 385.259 530.177 385.765 530.177 386.81V390H531.552V386.634C531.552 384.863 530.507 384.06 529.099 384.06ZM537.728 381.838V384.852C537.266 384.313 536.595 384.06 535.836 384.06C534.131 384.06 532.866 385.237 532.866 387.063C532.866 388.889 534.131 390.077 535.836 390.077C536.639 390.077 537.321 389.802 537.783 389.241V390H539.103V381.838H537.728ZM536.001 388.9C535.011 388.9 534.252 388.185 534.252 387.063C534.252 385.941 535.011 385.226 536.001 385.226C536.991 385.226 537.75 385.941 537.75 387.063C537.75 388.185 536.991 388.9 536.001 388.9Z" fill="#112D35"/>
<path opacity="0.4" d="M4.598 390.11C5.863 390.11 6.941 389.659 7.656 388.823L6.732 387.943C6.171 388.559 5.478 388.856 4.675 388.856C3.08 388.856 1.925 387.734 1.925 386.15C1.925 384.566 3.08 383.444 4.675 383.444C5.478 383.444 6.171 383.741 6.732 384.346L7.656 383.477C6.941 382.641 5.863 382.19 4.609 382.19C2.244 382.19 0.484 383.851 0.484 386.15C0.484 388.449 2.244 390.11 4.598 390.11ZM13.0742 384.126L11.2152 388.471L9.36719 384.126H7.93719L10.5002 390.022L10.4012 390.253C10.1372 390.836 9.85119 391.067 9.36719 391.067C8.99319 391.067 8.61919 390.913 8.35519 390.66L7.80519 391.672C8.17919 392.013 8.79519 392.211 9.37819 392.211C10.3572 392.211 11.1052 391.804 11.6442 390.473L14.3942 384.126H13.0742ZM17.7874 390.077C18.9314 390.077 19.8444 389.582 20.2954 388.702L19.2394 388.086C18.8874 388.647 18.3594 388.9 17.7764 388.9C16.7644 388.9 15.9944 388.207 15.9944 387.063C15.9944 385.93 16.7644 385.226 17.7764 385.226C18.3594 385.226 18.8874 385.479 19.2394 386.04L20.2954 385.424C19.8444 384.533 18.9314 384.06 17.7874 384.06C15.9284 384.06 14.6084 385.303 14.6084 387.063C14.6084 388.823 15.9284 390.077 17.7874 390.077ZM21.4303 390H22.8053V381.838H21.4303V390ZM30.132 387.096C30.132 385.259 28.878 384.06 27.162 384.06C25.413 384.06 24.126 385.314 24.126 387.063C24.126 388.812 25.402 390.077 27.371 390.077C28.383 390.077 29.208 389.747 29.736 389.12L28.999 388.273C28.581 388.702 28.064 388.911 27.404 388.911C26.381 388.911 25.666 388.361 25.501 387.503H30.11C30.121 387.371 30.132 387.206 30.132 387.096ZM27.162 385.16C28.064 385.16 28.713 385.743 28.823 386.59H25.49C25.622 385.732 26.271 385.16 27.162 385.16ZM37.0118 390.11C39.1238 390.11 40.1248 389.054 40.1248 387.822C40.1248 384.995 35.5598 386.062 35.5598 384.423C35.5598 383.84 36.0438 383.378 37.2318 383.378C37.9028 383.378 38.6618 383.576 39.3548 383.983L39.8058 382.872C39.1348 382.432 38.1668 382.19 37.2428 382.19C35.1308 382.19 34.1408 383.246 34.1408 384.489C34.1408 387.349 38.7168 386.26 38.7168 387.921C38.7168 388.493 38.2108 388.922 37.0118 388.922C36.0658 388.922 35.0868 388.57 34.4708 388.075L33.9758 389.186C34.6138 389.736 35.8128 390.11 37.0118 390.11ZM44.5568 388.702C44.3478 388.867 44.0728 388.944 43.7868 388.944C43.2588 388.944 42.9728 388.636 42.9728 388.064V385.27H44.5458V384.17H42.9728V382.828H41.5978V384.17H40.6298V385.27H41.5978V388.097C41.5978 389.395 42.3348 390.077 43.6218 390.077C44.1168 390.077 44.6118 389.945 44.9418 389.681L44.5568 388.702ZM48.3169 384.06C47.3709 384.06 46.4579 384.302 45.8309 384.786L46.3699 385.787C46.8099 385.424 47.4919 385.204 48.1519 385.204C49.1309 385.204 49.6149 385.677 49.6149 386.48V386.568H48.0969C46.3149 386.568 45.6549 387.338 45.6549 388.317C45.6549 389.34 46.5019 390.077 47.8439 390.077C48.7239 390.077 49.3619 389.791 49.6919 389.285V390H50.9899V386.557C50.9899 384.863 50.0109 384.06 48.3169 384.06ZM48.1299 389.076C47.4259 389.076 47.0079 388.757 47.0079 388.262C47.0079 387.833 47.2609 387.481 48.1959 387.481H49.6149V388.163C49.3839 388.768 48.8009 389.076 48.1299 389.076ZM54.0635 384.984V384.126H52.7545V390H54.1295V387.151C54.1295 385.952 54.7895 385.336 55.8345 385.336C55.9335 385.336 56.0325 385.347 56.1535 385.369V384.06C55.1745 384.06 54.4595 384.368 54.0635 384.984ZM60.6808 388.702C60.4718 388.867 60.1968 388.944 59.9108 388.944C59.3828 388.944 59.0968 388.636 59.0968 388.064V385.27H60.6698V384.17H59.0968V382.828H57.7218V384.17H56.7538V385.27H57.7218V388.097C57.7218 389.395 58.4588 390.077 59.7458 390.077C60.2408 390.077 60.7358 389.945 61.0658 389.681L60.6808 388.702Z" fill="#112D35"/>
<path fill-rule="evenodd" clip-rule="evenodd" d="M7 341C7 341 97.9658 332.486 142.009 279.919C186.052 227.351 205.127 134.214 225.029 165.153C244.931 196.092 252.793 300.098 288.41 312.852C324.027 325.605 344.004 242.424 392.812 260.225C441.62 278.026 480.963 336.687 526.996 340.098C526.479 340.012 7 341 7 341Z" fill="url(#paint0_linear_0_133)"/>
<g filter="url(#filter0_b_0_133)">
<path fill-rule="evenodd" clip-rule="evenodd" d="M7 340.785C38.5733 316.395 56.2715 307.564 94.6442 316.395C133.017 325.226 180.113 324.481 203.681 268.111C227.25 211.741 224.461 123 241.62 123C258.779 123 255.802 298.087 345.673 316.395C435.543 334.704 512 341 512 341C512 341 16.1443 339.755 7 340.785Z" fill="url(#paint1_linear_0_133)"/>
</g>
<g style="mix-blend-mode:hard-light">
<path fill-rule="evenodd" clip-rule="evenodd" d="M146 0V341H270V0H146Z" fill="#AEAAE8" fill-opacity="0.5"/>
</g>
<g filter="url(#filter1_b_0_133)">
<path fill-rule="evenodd" clip-rule="evenodd" d="M3 340.673C3 340.673 171.929 345.159 248.325 288.176C324.72 231.193 335.64 136 387.597 136C439.554 136 466.653 288.616 530 340.215C530 340.43 3 340.673 3 340.673Z" fill="url(#paint2_linear_0_133)"/>
</g>
<g style="mix-blend-mode:hard-light">
<path fill-rule="evenodd" clip-rule="evenodd" d="M316 0V341H440V0H316Z" fill="#AEAAE8" fill-opacity="0.5"/>
</g>
<path d="M270.5 340.24V20" stroke="url(#paint3_linear_0_133)" stroke-linecap="square" stroke-dasharray="1 5"/>
<path d="M535 340.5L5 340.5" stroke="#112D35" stroke-linecap="square"/>
<path opacity="0.5" d="M339.5 69L339.49 62H338.67L335.79 66.92L332.87 62H332.05V69H333.01V63.93L335.54 68.15H336L338.53 63.9L338.54 69H339.5ZM346.251 66.38C346.251 64.75 345.161 63.65 343.631 63.65C342.101 63.65 340.971 64.78 340.971 66.35C340.971 67.93 342.111 69.06 343.821 69.06C344.701 69.06 345.431 68.76 345.911 68.2L345.381 67.58C344.991 68.01 344.471 68.22 343.851 68.22C342.801 68.22 342.051 67.6 341.931 66.67H346.231C346.241 66.58 346.251 66.46 346.251 66.38ZM343.631 64.46C344.561 64.46 345.231 65.09 345.331 65.98H341.931C342.031 65.08 342.711 64.46 343.631 64.46ZM349.367 63.65C348.517 63.65 347.727 63.89 347.177 64.33L347.577 65.05C347.987 64.7 348.627 64.48 349.257 64.48C350.207 64.48 350.677 64.95 350.677 65.76V65.95H349.157C347.577 65.95 347.027 66.65 347.027 67.5C347.027 68.42 347.787 69.06 348.987 69.06C349.817 69.06 350.407 68.78 350.727 68.3V69H351.637V65.8C351.637 64.35 350.817 63.65 349.367 63.65ZM349.147 68.32C348.417 68.32 347.977 67.99 347.977 67.46C347.977 67.01 348.247 66.64 349.197 66.64H350.677V67.38C350.437 67.99 349.867 68.32 349.147 68.32ZM354.934 69.06C356.344 69.06 357.224 68.45 357.224 67.49C357.224 65.43 353.864 66.45 353.864 65.2C353.864 64.78 354.274 64.47 355.114 64.47C355.634 64.47 356.164 64.58 356.644 64.89L357.054 64.13C356.594 63.83 355.814 63.65 355.124 63.65C353.764 63.65 352.914 64.29 352.914 65.24C352.914 67.35 356.264 66.32 356.264 67.51C356.264 67.96 355.894 68.23 355.004 68.23C354.314 68.23 353.594 68 353.144 67.68L352.744 68.44C353.184 68.79 354.054 69.06 354.934 69.06ZM362.404 63.7V66.44C362.404 67.58 361.764 68.2 360.764 68.2C359.854 68.2 359.334 67.68 359.334 66.64V63.7H358.374V66.75C358.374 68.31 359.284 69.06 360.654 69.06C361.404 69.06 362.064 68.75 362.454 68.2V69H363.364V63.7H362.404ZM366.111 64.59V63.7H365.191V69H366.151V66.36C366.151 65.2 366.791 64.57 367.821 64.57C367.891 64.57 367.961 64.57 368.041 64.58V63.65C367.111 63.65 366.451 63.97 366.111 64.59ZM373.966 66.38C373.966 64.75 372.876 63.65 371.346 63.65C369.816 63.65 368.686 64.78 368.686 66.35C368.686 67.93 369.826 69.06 371.536 69.06C372.416 69.06 373.146 68.76 373.626 68.2L373.096 67.58C372.706 68.01 372.186 68.22 371.566 68.22C370.516 68.22 369.766 67.6 369.646 66.67H373.946C373.956 66.58 373.966 66.46 373.966 66.38ZM371.346 64.46C372.276 64.46 372.946 65.09 373.046 65.98H369.646C369.746 65.08 370.426 64.46 371.346 64.46ZM376.819 69.06C378.229 69.06 379.109 68.45 379.109 67.49C379.109 65.43 375.749 66.45 375.749 65.2C375.749 64.78 376.159 64.47 376.999 64.47C377.519 64.47 378.049 64.58 378.529 64.89L378.939 64.13C378.479 63.83 377.699 63.65 377.009 63.65C375.649 63.65 374.799 64.29 374.799 65.24C374.799 67.35 378.149 66.32 378.149 67.51C378.149 67.96 377.779 68.23 376.889 68.23C376.199 68.23 375.479 68 375.029 67.68L374.629 68.44C375.069 68.79 375.939 69.06 376.819 69.06ZM334.78 74H332.05V81H333.05V78.88H334.78C336.6 78.88 337.7 77.96 337.7 76.44C337.7 74.92 336.6 74 334.78 74ZM334.75 78.01H333.05V74.87H334.75C336.03 74.87 336.7 75.44 336.7 76.44C336.7 77.44 336.03 78.01 334.75 78.01ZM339.861 76.59V75.7H338.941V81H339.901V78.36C339.901 77.2 340.541 76.57 341.571 76.57C341.641 76.57 341.711 76.57 341.791 76.58V75.65C340.861 75.65 340.201 75.97 339.861 76.59ZM345.196 81.06C346.786 81.06 347.946 79.93 347.946 78.35C347.946 76.77 346.786 75.65 345.196 75.65C343.606 75.65 342.436 76.77 342.436 78.35C342.436 79.93 343.606 81.06 345.196 81.06ZM345.196 80.22C344.176 80.22 343.406 79.48 343.406 78.35C343.406 77.22 344.176 76.49 345.196 76.49C346.216 76.49 346.976 77.22 346.976 78.35C346.976 79.48 346.216 80.22 345.196 80.22ZM353.433 75.7V76.52C352.983 75.94 352.263 75.65 351.473 75.65C349.943 75.65 348.783 76.68 348.783 78.21C348.783 79.74 349.943 80.78 351.473 80.78C352.233 80.78 352.923 80.51 353.383 79.96V80.38C353.383 81.58 352.813 82.16 351.563 82.16C350.783 82.16 350.013 81.89 349.523 81.47L349.063 82.21C349.643 82.73 350.623 83 351.593 83C353.393 83 354.343 82.15 354.343 80.28V75.7H353.433ZM351.583 79.94C350.513 79.94 349.753 79.23 349.753 78.21C349.753 77.18 350.513 76.49 351.583 76.49C352.643 76.49 353.403 77.18 353.403 78.21C353.403 79.23 352.643 79.94 351.583 79.94ZM360.968 78.38C360.968 76.75 359.878 75.65 358.348 75.65C356.818 75.65 355.688 76.78 355.688 78.35C355.688 79.93 356.828 81.06 358.538 81.06C359.418 81.06 360.148 80.76 360.628 80.2L360.098 79.58C359.708 80.01 359.188 80.22 358.568 80.22C357.518 80.22 356.768 79.6 356.648 78.67H360.948C360.958 78.58 360.968 78.46 360.968 78.38ZM358.348 76.46C359.278 76.46 359.948 77.09 360.048 77.98H356.648C356.748 77.08 357.428 76.46 358.348 76.46ZM363.821 81.06C365.231 81.06 366.111 80.45 366.111 79.49C366.111 77.43 362.751 78.45 362.751 77.2C362.751 76.78 363.161 76.47 364.001 76.47C364.521 76.47 365.051 76.58 365.531 76.89L365.941 76.13C365.481 75.83 364.701 75.65 364.011 75.65C362.651 75.65 361.801 76.29 361.801 77.24C361.801 79.35 365.151 78.32 365.151 79.51C365.151 79.96 364.781 80.23 363.891 80.23C363.201 80.23 362.481 80 362.031 79.68L361.631 80.44C362.071 80.79 362.941 81.06 363.821 81.06ZM369.99 80C369.79 80.16 369.52 80.25 369.24 80.25C368.71 80.25 368.41 79.93 368.41 79.36V76.49H369.93V75.7H368.41V74.54H367.45V75.7H366.55V76.49H367.45V79.4C367.45 80.47 368.06 81.06 369.13 81.06C369.56 81.06 370 80.94 370.29 80.69L369.99 80ZM376.065 78.38C376.065 76.75 374.975 75.65 373.445 75.65C371.915 75.65 370.785 76.78 370.785 78.35C370.785 79.93 371.925 81.06 373.635 81.06C374.515 81.06 375.245 80.76 375.725 80.2L375.195 79.58C374.805 80.01 374.285 80.22 373.665 80.22C372.615 80.22 371.865 79.6 371.745 78.67H376.045C376.055 78.58 376.065 78.46 376.065 78.38ZM373.445 76.46C374.375 76.46 375.045 77.09 375.145 77.98H371.745C371.845 77.08 372.525 76.46 373.445 76.46ZM378.318 76.59V75.7H377.398V81H378.358V78.36C378.358 77.2 378.998 76.57 380.028 76.57C380.098 76.57 380.168 76.57 380.248 76.58V75.65C379.318 75.65 378.658 75.97 378.318 76.59ZM383.653 81.06C385.243 81.06 386.403 79.93 386.403 78.35C386.403 76.77 385.243 75.65 383.653 75.65C382.063 75.65 380.893 76.77 380.893 78.35C380.893 79.93 382.063 81.06 383.653 81.06ZM383.653 80.22C382.633 80.22 381.863 79.48 381.863 78.35C381.863 77.22 382.633 76.49 383.653 76.49C384.673 76.49 385.433 77.22 385.433 78.35C385.433 79.48 384.673 80.22 383.653 80.22ZM390.56 75.65C389.72 75.65 389.04 75.96 388.65 76.5V75.7H387.73V81H388.69V78.27C388.69 77.12 389.35 76.51 390.37 76.51C391.28 76.51 391.8 77.02 391.8 78.06V81H392.76V77.95C392.76 76.39 391.85 75.65 390.56 75.65ZM399.356 78.38C399.356 76.75 398.266 75.65 396.736 75.65C395.206 75.65 394.076 76.78 394.076 78.35C394.076 79.93 395.216 81.06 396.926 81.06C397.806 81.06 398.536 80.76 399.016 80.2L398.486 79.58C398.096 80.01 397.576 80.22 396.956 80.22C395.906 80.22 395.156 79.6 395.036 78.67H399.336C399.346 78.58 399.356 78.46 399.356 78.38ZM396.736 76.46C397.666 76.46 398.336 77.09 398.436 77.98H395.036C395.136 77.08 395.816 76.46 396.736 76.46Z" fill="#112D35"/>
<path d="M164.304 29H166.124V20.74H169.372V19.2H161.056V20.74H164.304V29ZM172.058 22.616V21.524H170.392V29H172.142V25.374C172.142 23.848 172.982 23.064 174.312 23.064C174.438 23.064 174.564 23.078 174.718 23.106V21.44C173.472 21.44 172.562 21.832 172.058 22.616ZM179.018 21.44C177.814 21.44 176.652 21.748 175.854 22.364L176.54 23.638C177.1 23.176 177.968 22.896 178.808 22.896C180.054 22.896 180.67 23.498 180.67 24.52V24.632H178.738C176.47 24.632 175.63 25.612 175.63 26.858C175.63 28.16 176.708 29.098 178.416 29.098C179.536 29.098 180.348 28.734 180.768 28.09V29H182.42V24.618C182.42 22.462 181.174 21.44 179.018 21.44ZM178.78 27.824C177.884 27.824 177.352 27.418 177.352 26.788C177.352 26.242 177.674 25.794 178.864 25.794H180.67V26.662C180.376 27.432 179.634 27.824 178.78 27.824ZM188.164 29.098C189.62 29.098 190.782 28.468 191.356 27.348L190.012 26.564C189.564 27.278 188.892 27.6 188.15 27.6C186.862 27.6 185.882 26.718 185.882 25.262C185.882 23.82 186.862 22.924 188.15 22.924C188.892 22.924 189.564 23.246 190.012 23.96L191.356 23.176C190.782 22.042 189.62 21.44 188.164 21.44C185.798 21.44 184.118 23.022 184.118 25.262C184.118 27.502 185.798 29.098 188.164 29.098ZM198.442 29H200.57L197.154 24.66L200.276 21.524H198.176L194.55 24.884V18.612H192.8V29H194.55V27.026L195.852 25.794L198.442 29ZM212.892 20.726V19.2H205.738V29H207.558V25.248H212.29V23.708H207.558V20.726H212.892ZM221.307 25.304C221.307 22.966 219.711 21.44 217.527 21.44C215.301 21.44 213.663 23.036 213.663 25.262C213.663 27.488 215.287 29.098 217.793 29.098C219.081 29.098 220.131 28.678 220.803 27.88L219.865 26.802C219.333 27.348 218.675 27.614 217.835 27.614C216.533 27.614 215.623 26.914 215.413 25.822H221.279C221.293 25.654 221.307 25.444 221.307 25.304ZM217.527 22.84C218.675 22.84 219.501 23.582 219.641 24.66H215.399C215.567 23.568 216.393 22.84 217.527 22.84ZM224.654 22.616V21.524H222.988V29H224.738V25.374C224.738 23.848 225.578 23.064 226.908 23.064C227.034 23.064 227.16 23.078 227.314 23.106V21.44C226.068 21.44 225.158 21.832 224.654 22.616ZM233.076 27.348C232.81 27.558 232.46 27.656 232.096 27.656C231.424 27.656 231.06 27.264 231.06 26.536V22.98H233.062V21.58H231.06V19.872H229.31V21.58H228.078V22.98H229.31V26.578C229.31 28.23 230.248 29.098 231.886 29.098C232.516 29.098 233.146 28.93 233.566 28.594L233.076 27.348ZM235.887 20.292C236.545 20.292 237.007 19.816 237.007 19.2C237.007 18.626 236.531 18.192 235.887 18.192C235.243 18.192 234.767 18.654 234.767 19.242C234.767 19.83 235.243 20.292 235.887 20.292ZM235.005 29H236.755V21.524H235.005V29ZM239.052 29H240.802V18.612H239.052V29ZM250.127 25.304C250.127 22.966 248.531 21.44 246.347 21.44C244.121 21.44 242.483 23.036 242.483 25.262C242.483 27.488 244.107 29.098 246.613 29.098C247.901 29.098 248.951 28.678 249.623 27.88L248.685 26.802C248.153 27.348 247.495 27.614 246.655 27.614C245.353 27.614 244.443 26.914 244.233 25.822H250.099C250.113 25.654 250.127 25.444 250.127 25.304ZM246.347 22.84C247.495 22.84 248.321 23.582 248.461 24.66H244.219C244.387 23.568 245.213 22.84 246.347 22.84ZM162.316 46H166.6C169.778 46 171.948 44.04 171.948 41.1C171.948 38.16 169.778 36.2 166.6 36.2H162.316V46ZM164.136 44.46V37.74H166.516C168.7 37.74 170.114 39.07 170.114 41.1C170.114 43.13 168.7 44.46 166.516 44.46H164.136ZM176.57 38.44C175.366 38.44 174.204 38.748 173.406 39.364L174.092 40.638C174.652 40.176 175.52 39.896 176.36 39.896C177.606 39.896 178.222 40.498 178.222 41.52V41.632H176.29C174.022 41.632 173.182 42.612 173.182 43.858C173.182 45.16 174.26 46.098 175.968 46.098C177.088 46.098 177.9 45.734 178.32 45.09V46H179.972V41.618C179.972 39.462 178.726 38.44 176.57 38.44ZM176.332 44.824C175.436 44.824 174.904 44.418 174.904 43.788C174.904 43.242 175.226 42.794 176.416 42.794H178.222V43.662C177.928 44.432 177.186 44.824 176.332 44.824ZM187.402 38.524L185.036 44.054L182.684 38.524H180.864L184.126 46.028L184 46.322C183.664 47.064 183.3 47.358 182.684 47.358C182.208 47.358 181.732 47.162 181.396 46.84L180.696 48.128C181.172 48.562 181.956 48.814 182.698 48.814C183.944 48.814 184.896 48.296 185.582 46.602L189.082 38.524H187.402ZM192.39 46.098C194.49 46.098 195.778 45.188 195.778 43.788C195.778 40.862 191.158 42.206 191.158 40.694C191.158 40.204 191.662 39.854 192.726 39.854C193.44 39.854 194.154 39.994 194.868 40.414L195.54 39.084C194.868 38.678 193.734 38.44 192.74 38.44C190.724 38.44 189.45 39.364 189.45 40.778C189.45 43.76 194.07 42.416 194.07 43.844C194.07 44.362 193.608 44.67 192.502 44.67C191.564 44.67 190.556 44.362 189.898 43.928L189.226 45.258C189.898 45.734 191.144 46.098 192.39 46.098Z" fill="#112D35"/>
<path opacity="0.5" d="M169.5 69L169.49 62H168.67L165.79 66.92L162.87 62H162.05V69H163.01V63.93L165.54 68.15H166L168.53 63.9L168.54 69H169.5ZM176.251 66.38C176.251 64.75 175.161 63.65 173.631 63.65C172.101 63.65 170.971 64.78 170.971 66.35C170.971 67.93 172.111 69.06 173.821 69.06C174.701 69.06 175.431 68.76 175.911 68.2L175.381 67.58C174.991 68.01 174.471 68.22 173.851 68.22C172.801 68.22 172.051 67.6 171.931 66.67H176.231C176.241 66.58 176.251 66.46 176.251 66.38ZM173.631 64.46C174.561 64.46 175.231 65.09 175.331 65.98H171.931C172.031 65.08 172.711 64.46 173.631 64.46ZM179.367 63.65C178.517 63.65 177.727 63.89 177.177 64.33L177.577 65.05C177.987 64.7 178.627 64.48 179.257 64.48C180.207 64.48 180.677 64.95 180.677 65.76V65.95H179.157C177.577 65.95 177.027 66.65 177.027 67.5C177.027 68.42 177.787 69.06 178.987 69.06C179.817 69.06 180.407 68.78 180.727 68.3V69H181.637V65.8C181.637 64.35 180.817 63.65 179.367 63.65ZM179.147 68.32C178.417 68.32 177.977 67.99 177.977 67.46C177.977 67.01 178.247 66.64 179.197 66.64H180.677V67.38C180.437 67.99 179.867 68.32 179.147 68.32ZM184.934 69.06C186.344 69.06 187.224 68.45 187.224 67.49C187.224 65.43 183.864 66.45 183.864 65.2C183.864 64.78 184.274 64.47 185.114 64.47C185.634 64.47 186.164 64.58 186.644 64.89L187.054 64.13C186.594 63.83 185.814 63.65 185.124 63.65C183.764 63.65 182.914 64.29 182.914 65.24C182.914 67.35 186.264 66.32 186.264 67.51C186.264 67.96 185.894 68.23 185.004 68.23C184.314 68.23 183.594 68 183.144 67.68L182.744 68.44C183.184 68.79 184.054 69.06 184.934 69.06ZM192.404 63.7V66.44C192.404 67.58 191.764 68.2 190.764 68.2C189.854 68.2 189.334 67.68 189.334 66.64V63.7H188.374V66.75C188.374 68.31 189.284 69.06 190.654 69.06C191.404 69.06 192.064 68.75 192.454 68.2V69H193.364V63.7H192.404ZM196.111 64.59V63.7H195.191V69H196.151V66.36C196.151 65.2 196.791 64.57 197.821 64.57C197.891 64.57 197.961 64.57 198.041 64.58V63.65C197.111 63.65 196.451 63.97 196.111 64.59ZM203.966 66.38C203.966 64.75 202.876 63.65 201.346 63.65C199.816 63.65 198.686 64.78 198.686 66.35C198.686 67.93 199.826 69.06 201.536 69.06C202.416 69.06 203.146 68.76 203.626 68.2L203.096 67.58C202.706 68.01 202.186 68.22 201.566 68.22C200.516 68.22 199.766 67.6 199.646 66.67H203.946C203.956 66.58 203.966 66.46 203.966 66.38ZM201.346 64.46C202.276 64.46 202.946 65.09 203.046 65.98H199.646C199.746 65.08 200.426 64.46 201.346 64.46ZM206.819 69.06C208.229 69.06 209.109 68.45 209.109 67.49C209.109 65.43 205.749 66.45 205.749 65.2C205.749 64.78 206.159 64.47 206.999 64.47C207.519 64.47 208.049 64.58 208.529 64.89L208.939 64.13C208.479 63.83 207.699 63.65 207.009 63.65C205.649 63.65 204.799 64.29 204.799 65.24C204.799 67.35 208.149 66.32 208.149 67.51C208.149 67.96 207.779 68.23 206.889 68.23C206.199 68.23 205.479 68 205.029 67.68L204.629 68.44C205.069 68.79 205.939 69.06 206.819 69.06ZM213.134 69H217.924V68.13H214.134V62H213.134V69ZM224.091 62V65.01H220.071V62H219.071V69H220.071V65.88H224.091V69H225.091V62H224.091ZM166.15 77.11H164.33V75.31H163.49V77.11H161.67V77.9H163.49V79.69H164.33V77.9H166.15V77.11ZM171.556 80.13V77.87H175.066V77.02H171.556V74.87H175.496V74H170.556V81H175.636V80.13H171.556ZM178.567 81.06C179.977 81.06 180.857 80.45 180.857 79.49C180.857 77.43 177.497 78.45 177.497 77.2C177.497 76.78 177.907 76.47 178.747 76.47C179.267 76.47 179.797 76.58 180.277 76.89L180.687 76.13C180.227 75.83 179.447 75.65 178.757 75.65C177.397 75.65 176.547 76.29 176.547 77.24C176.547 79.35 179.897 78.32 179.897 79.51C179.897 79.96 179.527 80.23 178.637 80.23C177.947 80.23 177.227 80 176.777 79.68L176.377 80.44C176.817 80.79 177.687 81.06 178.567 81.06ZM184.736 80C184.536 80.16 184.266 80.25 183.986 80.25C183.456 80.25 183.156 79.93 183.156 79.36V76.49H184.676V75.7H183.156V74.54H182.196V75.7H181.296V76.49H182.196V79.4C182.196 80.47 182.806 81.06 183.876 81.06C184.306 81.06 184.746 80.94 185.036 80.69L184.736 80ZM187.117 76.59V75.7H186.197V81H187.157V78.36C187.157 77.2 187.797 76.57 188.827 76.57C188.897 76.57 188.967 76.57 189.047 76.58V75.65C188.117 75.65 187.457 75.97 187.117 76.59ZM192.451 81.06C194.041 81.06 195.201 79.93 195.201 78.35C195.201 76.77 194.041 75.65 192.451 75.65C190.861 75.65 189.691 76.77 189.691 78.35C189.691 79.93 190.861 81.06 192.451 81.06ZM192.451 80.22C191.431 80.22 190.661 79.48 190.661 78.35C190.661 77.22 191.431 76.49 192.451 76.49C193.471 76.49 194.231 77.22 194.231 78.35C194.231 79.48 193.471 80.22 192.451 80.22ZM200.689 75.7V76.52C200.239 75.94 199.519 75.65 198.729 75.65C197.199 75.65 196.039 76.68 196.039 78.21C196.039 79.74 197.199 80.78 198.729 80.78C199.489 80.78 200.179 80.51 200.639 79.96V80.38C200.639 81.58 200.069 82.16 198.819 82.16C198.039 82.16 197.269 81.89 196.779 81.47L196.319 82.21C196.899 82.73 197.879 83 198.849 83C200.649 83 201.599 82.15 201.599 80.28V75.7H200.689ZM198.839 79.94C197.769 79.94 197.009 79.23 197.009 78.21C197.009 77.18 197.769 76.49 198.839 76.49C199.899 76.49 200.659 77.18 200.659 78.21C200.659 79.23 199.899 79.94 198.839 79.94ZM208.223 78.38C208.223 76.75 207.133 75.65 205.603 75.65C204.073 75.65 202.943 76.78 202.943 78.35C202.943 79.93 204.083 81.06 205.793 81.06C206.673 81.06 207.403 80.76 207.883 80.2L207.353 79.58C206.963 80.01 206.443 80.22 205.823 80.22C204.773 80.22 204.023 79.6 203.903 78.67H208.203C208.213 78.58 208.223 78.46 208.223 78.38ZM205.603 76.46C206.533 76.46 207.203 77.09 207.303 77.98H203.903C204.003 77.08 204.683 76.46 205.603 76.46ZM212.386 75.65C211.546 75.65 210.866 75.96 210.476 76.5V75.7H209.556V81H210.516V78.27C210.516 77.12 211.176 76.51 212.196 76.51C213.106 76.51 213.626 77.02 213.626 78.06V81H214.586V77.95C214.586 76.39 213.676 75.65 212.386 75.65Z" fill="#112D35"/>
<path d="M336.852 29.14C338.462 29.14 339.834 28.566 340.744 27.502L339.568 26.382C338.854 27.166 337.972 27.544 336.95 27.544C334.92 27.544 333.45 26.116 333.45 24.1C333.45 22.084 334.92 20.656 336.95 20.656C337.972 20.656 338.854 21.034 339.568 21.804L340.744 20.698C339.834 19.634 338.462 19.06 336.866 19.06C333.856 19.06 331.616 21.174 331.616 24.1C331.616 27.026 333.856 29.14 336.852 29.14ZM345.406 29.098C347.73 29.098 349.396 27.502 349.396 25.262C349.396 23.022 347.73 21.44 345.406 21.44C343.11 21.44 341.43 23.022 341.43 25.262C341.43 27.502 343.11 29.098 345.406 29.098ZM345.406 27.6C344.146 27.6 343.194 26.69 343.194 25.262C343.194 23.834 344.146 22.924 345.406 22.924C346.68 22.924 347.632 23.834 347.632 25.262C347.632 26.69 346.68 27.6 345.406 27.6ZM355.312 21.44C354.22 21.44 353.31 21.804 352.736 22.49V21.524H351.07V29H352.82V25.22C352.82 23.722 353.66 22.966 354.906 22.966C356.026 22.966 356.684 23.61 356.684 24.94V29H358.434V24.716C358.434 22.462 357.104 21.44 355.312 21.44ZM363.692 19.928C364.056 19.928 364.392 20.054 364.658 20.236L365.148 18.92C364.756 18.64 364.168 18.514 363.566 18.514C361.83 18.514 360.892 19.536 360.892 21.104V21.58H359.66V22.98H360.892V29H362.642V22.98H364.644V21.58H362.586V21.132C362.586 20.334 362.964 19.928 363.692 19.928ZM367.825 20.292C368.483 20.292 368.945 19.816 368.945 19.2C368.945 18.626 368.469 18.192 367.825 18.192C367.181 18.192 366.705 18.654 366.705 19.242C366.705 19.83 367.181 20.292 367.825 20.292ZM366.943 29H368.693V21.524H366.943V29ZM372.656 22.616V21.524H370.99V29H372.74V25.374C372.74 23.848 373.58 23.064 374.91 23.064C375.036 23.064 375.162 23.078 375.316 23.106V21.44C374.07 21.44 373.16 21.832 372.656 22.616ZM386.236 21.44C385.046 21.44 384.038 21.916 383.436 22.686C382.918 21.846 382.008 21.44 380.916 21.44C379.894 21.44 379.026 21.804 378.466 22.476V21.524H376.8V29L378.55 29V25.206C378.55 23.722 379.334 22.966 380.496 22.966C381.56 22.966 382.176 23.61 382.176 24.94V29H383.926V25.206C383.926 23.722 384.724 22.966 385.872 22.966C386.936 22.966 387.552 23.61 387.552 24.94V29H389.302V24.716C389.302 22.462 388.042 21.44 386.236 21.44ZM336.894 46.14C339.932 46.14 342.172 44.012 342.172 41.1C342.172 38.188 339.932 36.06 336.894 36.06C333.856 36.06 331.616 38.202 331.616 41.1C331.616 43.998 333.856 46.14 336.894 46.14ZM336.894 44.544C334.92 44.544 333.45 43.102 333.45 41.1C333.45 39.098 334.92 37.656 336.894 37.656C338.868 37.656 340.338 39.098 340.338 41.1C340.338 43.102 338.868 44.544 336.894 44.544ZM349.253 38.524L346.859 44.068L344.535 38.524H342.715L345.921 46H347.727L350.933 38.524H349.253ZM357.515 38.524V42.304C357.515 43.802 356.689 44.558 355.471 44.558C354.365 44.558 353.721 43.914 353.721 42.556V38.524L351.971 38.524V42.794C351.971 45.048 353.273 46.098 355.191 46.098C356.157 46.098 357.039 45.734 357.599 45.048V46H359.265V38.524H357.515ZM361.556 46H363.306V35.612H361.556V46ZM368.459 38.44C367.255 38.44 366.093 38.748 365.295 39.364L365.981 40.638C366.541 40.176 367.409 39.896 368.249 39.896C369.495 39.896 370.111 40.498 370.111 41.52V41.632H368.179C365.911 41.632 365.071 42.612 365.071 43.858C365.071 45.16 366.149 46.098 367.857 46.098C368.977 46.098 369.789 45.734 370.209 45.09V46H371.861V41.618C371.861 39.462 370.615 38.44 368.459 38.44ZM368.221 44.824C367.325 44.824 366.793 44.418 366.793 43.788C366.793 43.242 367.115 42.794 368.305 42.794H370.111V43.662C369.817 44.432 369.075 44.824 368.221 44.824ZM378.111 44.348C377.845 44.558 377.495 44.656 377.131 44.656C376.459 44.656 376.095 44.264 376.095 43.536V39.98H378.097V38.58H376.095V36.872H374.345V38.58H373.113V39.98H374.345V43.578C374.345 45.23 375.283 46.098 376.921 46.098C377.551 46.098 378.181 45.93 378.601 45.594L378.111 44.348ZM380.923 37.292C381.581 37.292 382.043 36.816 382.043 36.2C382.043 35.626 381.567 35.192 380.923 35.192C380.279 35.192 379.803 35.654 379.803 36.242C379.803 36.83 380.279 37.292 380.923 37.292ZM380.041 46H381.791V38.524H380.041V46ZM387.447 46.098C389.771 46.098 391.437 44.502 391.437 42.262C391.437 40.022 389.771 38.44 387.447 38.44C385.151 38.44 383.471 40.022 383.471 42.262C383.471 44.502 385.151 46.098 387.447 46.098ZM387.447 44.6C386.187 44.6 385.235 43.69 385.235 42.262C385.235 40.834 386.187 39.924 387.447 39.924C388.721 39.924 389.673 40.834 389.673 42.262C389.673 43.69 388.721 44.6 387.447 44.6ZM397.353 38.44C396.261 38.44 395.351 38.804 394.777 39.49V38.524H393.111V46H394.861V42.22C394.861 40.722 395.701 39.966 396.947 39.966C398.067 39.966 398.725 40.61 398.725 41.94V46H400.475V41.716C400.475 39.462 399.145 38.44 397.353 38.44Z" fill="#112D35"/>
<path opacity="0.4" d="M321.034 390H324.4C326.897 390 328.602 388.46 328.602 386.15C328.602 383.84 326.897 382.3 324.4 382.3H321.034V390ZM322.464 388.79V383.51H324.334C326.05 383.51 327.161 384.555 327.161 386.15C327.161 387.745 326.05 388.79 324.334 388.79H322.464ZM332.234 384.06C331.288 384.06 330.375 384.302 329.748 384.786L330.287 385.787C330.727 385.424 331.409 385.204 332.069 385.204C333.048 385.204 333.532 385.677 333.532 386.48V386.568H332.014C330.232 386.568 329.572 387.338 329.572 388.317C329.572 389.34 330.419 390.077 331.761 390.077C332.641 390.077 333.279 389.791 333.609 389.285V390H334.907V386.557C334.907 384.863 333.928 384.06 332.234 384.06ZM332.047 389.076C331.343 389.076 330.925 388.757 330.925 388.262C330.925 387.833 331.178 387.481 332.113 387.481H333.532V388.163C333.301 388.768 332.718 389.076 332.047 389.076ZM340.744 384.126L338.885 388.471L337.037 384.126H335.607L338.17 390.022L338.071 390.253C337.807 390.836 337.521 391.067 337.037 391.067C336.663 391.067 336.289 390.913 336.025 390.66L335.475 391.672C335.849 392.013 336.465 392.211 337.048 392.211C338.027 392.211 338.775 391.804 339.314 390.473L342.064 384.126H340.744ZM344.663 390.077C346.313 390.077 347.325 389.362 347.325 388.262C347.325 385.963 343.695 387.019 343.695 385.831C343.695 385.446 344.091 385.171 344.927 385.171C345.488 385.171 346.049 385.281 346.61 385.611L347.138 384.566C346.61 384.247 345.719 384.06 344.938 384.06C343.354 384.06 342.353 384.786 342.353 385.897C342.353 388.24 345.983 387.184 345.983 388.306C345.983 388.713 345.62 388.955 344.751 388.955C344.014 388.955 343.222 388.713 342.705 388.372L342.177 389.417C342.705 389.791 343.684 390.077 344.663 390.077ZM354.409 385.479L356.279 383.257V382.3H351.032V383.499H354.53L352.781 385.578V386.557H353.485C354.651 386.557 355.157 387.008 355.157 387.701C355.157 388.416 354.552 388.867 353.529 388.867C352.66 388.867 351.824 388.57 351.274 388.108L350.658 389.219C351.373 389.78 352.462 390.11 353.551 390.11C355.619 390.11 356.598 388.988 356.598 387.69C356.598 386.535 355.861 385.666 354.409 385.479ZM360.695 387.514H363.72V386.37H360.695V387.514ZM371.344 385.248C370.486 385.248 369.749 385.512 369.287 386.051V386.04C369.287 384.291 370.2 383.389 371.652 383.389C372.191 383.389 372.697 383.488 373.115 383.763L373.643 382.685C373.126 382.355 372.389 382.19 371.619 382.19C369.386 382.19 367.846 383.642 367.846 386.282C367.846 388.757 369.078 390.11 371.179 390.11C372.752 390.11 373.995 389.142 373.995 387.613C373.995 386.172 372.862 385.248 371.344 385.248ZM371.102 388.988C370.079 388.988 369.507 388.416 369.507 387.69C369.507 386.931 370.145 386.37 371.069 386.37C372.004 386.37 372.609 386.876 372.609 387.679C372.609 388.482 371.993 388.988 371.102 388.988ZM380.445 384.06C379.499 384.06 378.586 384.302 377.959 384.786L378.498 385.787C378.938 385.424 379.62 385.204 380.28 385.204C381.259 385.204 381.743 385.677 381.743 386.48V386.568H380.225C378.443 386.568 377.783 387.338 377.783 388.317C377.783 389.34 378.63 390.077 379.972 390.077C380.852 390.077 381.49 389.791 381.82 389.285V390H383.118V386.557C383.118 384.863 382.139 384.06 380.445 384.06ZM380.258 389.076C379.554 389.076 379.136 388.757 379.136 388.262C379.136 387.833 379.389 387.481 380.324 387.481H381.743V388.163C381.512 388.768 380.929 389.076 380.258 389.076ZM387.269 382.872C387.555 382.872 387.819 382.971 388.028 383.114L388.413 382.08C388.105 381.86 387.643 381.761 387.17 381.761C385.806 381.761 385.069 382.564 385.069 383.796V384.17H384.101V385.27H385.069V390H386.444V385.27H388.017V384.17H386.4V383.818C386.4 383.191 386.697 382.872 387.269 382.872ZM392.089 388.702C391.88 388.867 391.605 388.944 391.319 388.944C390.791 388.944 390.505 388.636 390.505 388.064V385.27H392.078V384.17H390.505V382.828H389.13V384.17H388.162V385.27H389.13V388.097C389.13 389.395 389.867 390.077 391.154 390.077C391.649 390.077 392.144 389.945 392.474 389.681L392.089 388.702ZM398.934 387.096C398.934 385.259 397.68 384.06 395.964 384.06C394.215 384.06 392.928 385.314 392.928 387.063C392.928 388.812 394.204 390.077 396.173 390.077C397.185 390.077 398.01 389.747 398.538 389.12L397.801 388.273C397.383 388.702 396.866 388.911 396.206 388.911C395.183 388.911 394.468 388.361 394.303 387.503H398.912C398.923 387.371 398.934 387.206 398.934 387.096ZM395.964 385.16C396.866 385.16 397.515 385.743 397.625 386.59H394.292C394.424 385.732 395.073 385.16 395.964 385.16ZM401.564 384.984V384.126H400.255V390H401.63V387.151C401.63 385.952 402.29 385.336 403.335 385.336C403.434 385.336 403.533 385.347 403.654 385.369V384.06C402.675 384.06 401.96 384.368 401.564 384.984ZM411.214 382.3H408.046V390H409.476V387.778H411.214C413.238 387.778 414.492 386.733 414.492 385.039C414.492 383.334 413.238 382.3 411.214 382.3ZM411.148 386.568H409.476V383.51H411.148C412.402 383.51 413.051 384.071 413.051 385.039C413.051 386.007 412.402 386.568 411.148 386.568ZM421.288 387.096C421.288 385.259 420.034 384.06 418.318 384.06C416.569 384.06 415.282 385.314 415.282 387.063C415.282 388.812 416.558 390.077 418.527 390.077C419.539 390.077 420.364 389.747 420.892 389.12L420.155 388.273C419.737 388.702 419.22 388.911 418.56 388.911C417.537 388.911 416.822 388.361 416.657 387.503H421.266C421.277 387.371 421.288 387.206 421.288 387.096ZM418.318 385.16C419.22 385.16 419.869 385.743 419.979 386.59H416.646C416.778 385.732 417.427 385.16 418.318 385.16ZM424.692 384.06C423.746 384.06 422.833 384.302 422.206 384.786L422.745 385.787C423.185 385.424 423.867 385.204 424.527 385.204C425.506 385.204 425.99 385.677 425.99 386.48V386.568H424.472C422.69 386.568 422.03 387.338 422.03 388.317C422.03 389.34 422.877 390.077 424.219 390.077C425.099 390.077 425.737 389.791 426.067 389.285V390H427.365V386.557C427.365 384.863 426.386 384.06 424.692 384.06ZM424.505 389.076C423.801 389.076 423.383 388.757 423.383 388.262C423.383 387.833 423.636 387.481 424.571 387.481H425.99V388.163C425.759 388.768 425.176 389.076 424.505 389.076ZM433.563 390H435.235L432.551 386.59L435.004 384.126H433.354L430.505 386.766V381.838H429.13V390H430.505V388.449L431.528 387.481L433.563 390Z" fill="#112D35"/>
<circle cx="5" cy="341" r="5" fill="#112D35"/>
<circle cx="535" cy="341" r="5" fill="#112D35"/>
<g style="mix-blend-mode:multiply" filter="url(#filter2_d_0_133)">
<circle cx="270" cy="340" r="25" fill="white"/>
</g>
<circle cx="270" cy="340" r="25" fill="white"/>
<path fill-rule="evenodd" clip-rule="evenodd" d="M270 349.469L261.367 340.835C259.772 339.241 259.772 336.654 261.367 335.06C262.96 333.465 265.548 333.465 267.141 335.06L270 337.918L272.859 335.06C274.451 333.465 277.04 333.465 278.633 335.06C280.228 336.654 280.228 339.241 278.633 340.835L270 349.469Z" fill="#EC6D8F"/>
<defs>
<filter id="filter0_b_0_133" x="-20.1828" y="95.8172" width="559.366" height="272.366" filterUnits="userSpaceOnUse" color-interpolation-filters="sRGB">
<feFlood flood-opacity="0" result="BackgroundImageFix"/>
<feGaussianBlur in="BackgroundImageFix" stdDeviation="13.5914"/>
<feComposite in2="SourceAlpha" operator="in" result="effect1_backgroundBlur_0_133"/>
<feBlend mode="normal" in="SourceGraphic" in2="effect1_backgroundBlur_0_133" result="shape"/>
</filter>
<filter id="filter1_b_0_133" x="-24.1828" y="108.817" width="581.366" height="259.121" filterUnits="userSpaceOnUse" color-interpolation-filters="sRGB">
<feFlood flood-opacity="0" result="BackgroundImageFix"/>
<feGaussianBlur in="BackgroundImageFix" stdDeviation="13.5914"/>
<feComposite in2="SourceAlpha" operator="in" result="effect1_backgroundBlur_0_133"/>
<feBlend mode="normal" in="SourceGraphic" in2="effect1_backgroundBlur_0_133" result="shape"/>
</filter>
<filter id="filter2_d_0_133" x="227" y="303" width="86" height="86" filterUnits="userSpaceOnUse" color-interpolation-filters="sRGB">
<feFlood flood-opacity="0" result="BackgroundImageFix"/>
<feColorMatrix in="SourceAlpha" type="matrix" values="0 0 0 0 0 0 0 0 0 0 0 0 0 0 0 0 0 0 127 0" result="hardAlpha"/>
<feOffset dy="6"/>
<feGaussianBlur stdDeviation="9"/>
<feColorMatrix type="matrix" values="0 0 0 0 0 0 0 0 0 0 0 0 0 0 0 0 0 0 0.152699 0"/>
<feBlend mode="normal" in2="BackgroundImageFix" result="effect1_dropShadow_0_133"/>
<feBlend mode="normal" in="SourceGraphic" in2="effect1_dropShadow_0_133" result="shape"/>
</filter>
<linearGradient id="paint0_linear_0_133" x1="209.5" y1="145.936" x2="214.654" y2="426.224" gradientUnits="userSpaceOnUse">
<stop stop-color="#78B1FA"/>
<stop offset="1" stop-color="#BCE8ED"/>
</linearGradient>
<linearGradient id="paint1_linear_0_133" x1="158.971" y1="490.636" x2="97.9905" y2="188.083" gradientUnits="userSpaceOnUse">
<stop stop-color="#3BBCD4"/>
<stop offset="1" stop-color="#BCE8ED"/>
</linearGradient>
<linearGradient id="paint2_linear_0_133" x1="2.99998" y1="341" x2="224.065" y2="-2.66595" gradientUnits="userSpaceOnUse">
<stop stop-color="#AA92E1"/>
<stop offset="1" stop-color="#EEEDFF"/>
</linearGradient>
<linearGradient id="paint3_linear_0_133" x1="270.5" y1="340.24" x2="270.5" y2="20" gradientUnits="userSpaceOnUse">
<stop/>
<stop offset="0.632375"/>
<stop offset="1" stop-opacity="0.01"/>
</linearGradient>
</defs>
</svg>
