<svg width="40" height="40" viewBox="0 0 40 40" fill="none" xmlns="http://www.w3.org/2000/svg">
<circle cx="20" cy="20" r="20" fill="#1F94AA"/>
<path d="M30.8598 14.2283L20.308 8.952C20.2249 8.91036 20.1332 8.88867 20.0402 8.88867C19.9472 8.88867 19.8556 8.91036 19.7724 8.952L9.21984 14.2283C9.11979 14.2775 9.03564 14.3539 8.97707 14.4488C8.9185 14.5436 8.88788 14.6531 8.88873 14.7646V25.3157C8.88718 25.4278 8.91747 25.5381 8.97608 25.6337C9.03469 25.7292 9.11922 25.8062 9.21984 25.8557L19.7724 31.132C19.8558 31.1729 19.9474 31.1942 20.0402 31.1942C20.1331 31.1942 20.2247 31.1729 20.308 31.132L30.8613 25.855C30.9613 25.8055 31.0453 25.7287 31.1036 25.6336C31.1619 25.5384 31.1922 25.4288 31.191 25.3172V14.7646C31.1914 14.6532 31.1606 14.5439 31.102 14.4491C31.0435 14.3543 30.9596 14.2778 30.8598 14.2283ZM25.1961 12.7357L16.2621 17.4824L14.5635 16.6342L23.4976 11.8883L25.1961 12.7357ZM15.6739 18.5261V20.8564L15.188 20.3705C15.1326 20.3148 15.0667 20.2706 14.9941 20.2406C14.9215 20.2106 14.8436 20.1954 14.765 20.1957H13.8554V17.6179L15.6739 18.5261ZM20.0443 10.1557L22.1813 11.2268L13.248 15.972L10.8272 14.7639L20.0443 10.1557ZM19.4435 29.6216L10.0865 24.9468V15.7342L12.6576 17.0194V20.7972C12.6578 20.956 12.721 21.1082 12.8334 21.2204C12.9458 21.3327 13.0981 21.3957 13.2569 21.3957H14.5161L15.8495 22.729C15.9618 22.8408 16.1139 22.9035 16.2724 22.9031C16.431 22.9027 16.5829 22.8395 16.695 22.7273C16.807 22.6152 16.87 22.4631 16.8702 22.3046V19.1253L19.4406 20.412L19.4435 29.6216ZM20.0398 19.3705L17.5798 18.1424L26.5139 13.3942L29.2547 14.7653L20.0398 19.3705ZM29.9939 24.9468L20.6384 29.6239V20.412L29.9932 15.735L29.9939 24.9468Z" fill="white"/>
</svg>
