<svg width="40" height="40" viewBox="0 0 40 40" fill="none" xmlns="http://www.w3.org/2000/svg">
<g clip-path="url(#clip0_0_1589)">
<circle cx="20" cy="20" r="20" fill="#1F94AA"/>
<path d="M21.1259 18.2964L19.7726 15.5557L18.4207 18.2964L15.394 18.7408L17.5844 20.872L17.0659 23.886L19.7726 22.4616L22.4792 23.886L21.9607 20.872L24.1489 18.7364L21.1259 18.2964Z" fill="white"/>
<path d="M10.0643 19.8535L9.088 17.875L8.10949 19.8543L5.92578 20.1713L7.50356 21.7113L7.13319 23.8861L9.08652 22.8594L11.0369 23.8861L10.6665 21.7113L12.2473 20.1713L10.0643 19.8535Z" fill="white"/>
<path d="M31.6651 19.8535L30.6888 17.875L29.711 19.8543L27.5273 20.1713L29.1051 21.7113L28.7348 23.8861L30.6881 22.8594L32.6385 23.8861L32.2681 21.7113L33.8481 20.1706L31.6651 19.8535Z" fill="white"/>
</g>
<defs>
<clipPath id="clip0_0_1589">
<rect width="40" height="40" fill="white"/>
</clipPath>
</defs>
</svg>
