<svg width="28" height="28" viewBox="0 0 28 28" fill="none" xmlns="http://www.w3.org/2000/svg">
<path d="M26.2665 0.666504H1.73317C1.14317 0.666504 0.666504 1.14317 0.666504 1.73317V26.2665C0.666504 26.8565 1.14317 27.3332 1.73317 27.3332H26.2665C26.8565 27.3332 27.3332 26.8565 27.3332 26.2665V1.73317C27.3332 1.14317 26.8565 0.666504 26.2665 0.666504ZM8.5765 23.3898H4.61984V10.6632H8.5765V23.3898ZM6.59984 8.92317C6.14626 8.92317 5.70286 8.78866 5.32573 8.53668C4.9486 8.28468 4.65465 7.9265 4.48108 7.50746C4.30749 7.08841 4.26208 6.62729 4.35057 6.18242C4.43906 5.73757 4.65748 5.32893 4.97821 5.00821C5.29893 4.68748 5.70757 4.46906 6.15242 4.38057C6.59729 4.29208 7.05841 4.33749 7.47746 4.51108C7.8965 4.68465 8.25468 4.9786 8.50668 5.35573C8.75866 5.73286 8.89317 6.17626 8.89317 6.62984C8.88984 7.8965 7.86317 8.92317 6.59984 8.92317ZM23.3898 23.3898H19.4365V17.1998C19.4365 15.7232 19.4098 13.8265 17.3798 13.8265C15.3232 13.8265 15.0065 15.4332 15.0065 17.0932V23.3898H11.0565V10.6632H14.8498V12.4032H14.9032C15.4298 11.4032 16.7198 10.3465 18.6465 10.3465C22.6532 10.3465 23.3898 12.9832 23.3898 16.4098V23.3898Z" fill="white"/>
</svg>
