<svg width="937" height="928" viewBox="0 0 937 928" fill="none" xmlns="http://www.w3.org/2000/svg">
<path d="M410.403 25.3698C441.961 -7.96615 495.039 -7.96617 526.597 25.3698L564.592 65.5055C583.625 85.6116 611.702 94.447 638.82 88.8642L695.026 77.2931C741.343 67.7578 785.779 100.262 790.719 147.292L795.228 190.212C798.301 219.465 817.179 244.672 844.386 255.851L887.331 273.496C933.144 292.319 951.018 347.825 924.798 389.844L904.952 421.649C888.779 447.567 888.779 480.433 904.952 506.351L924.798 538.156C951.018 580.175 933.143 635.681 887.331 654.504L844.386 672.149C817.179 683.328 798.301 708.535 795.228 737.788L790.719 780.708C785.779 827.738 741.343 860.242 695.026 850.707L638.82 839.136C611.702 833.553 583.625 842.388 564.592 862.494L526.597 902.63C495.039 935.966 441.961 935.966 410.403 902.63L372.408 862.495C353.375 842.388 325.298 833.553 298.18 839.136L241.974 850.707C195.657 860.242 151.221 827.738 146.281 780.708L141.772 737.788C138.699 708.535 119.821 683.328 92.6136 672.149L49.6688 654.504C3.85661 635.681 -14.0176 580.175 12.2021 538.156L32.0483 506.351C48.2209 480.433 48.2209 447.567 32.0482 421.649L12.2021 389.844C-14.0176 347.825 3.85654 292.319 49.6687 273.496L92.6135 255.851C119.821 244.672 138.699 219.465 141.772 190.212L146.281 147.292C151.221 100.262 195.657 67.7578 241.974 77.2931L298.18 88.8643C325.298 94.447 353.375 85.6116 372.408 65.5055L410.403 25.3698Z" fill="#D0CDFE"/>
</svg>
