<svg width="565" height="560" viewBox="0 0 565 560" fill="none" xmlns="http://www.w3.org/2000/svg">
<path d="M228.311 28.2697C255.105 -8.45303 309.895 -8.45303 336.689 28.2697V28.2697C352.749 50.2799 380.526 60.3899 406.976 53.8518V53.8518C451.106 42.9434 493.078 78.1623 489.999 123.516V123.516C488.153 150.7 502.933 176.299 527.397 188.293V188.293C568.215 208.303 577.729 262.261 546.217 295.025V295.025C527.33 314.662 522.197 343.773 533.229 368.686V368.686C551.635 410.251 524.239 457.702 479.039 462.545V462.545C451.948 465.447 429.304 484.448 421.741 510.623V510.623C409.123 554.295 357.637 573.035 319.899 547.691V547.691C297.28 532.501 267.72 532.501 245.101 547.691V547.691C207.363 573.035 155.877 554.295 143.259 510.623V510.623C135.696 484.448 113.052 465.447 85.9608 462.545V462.545C40.7609 457.702 13.3655 410.251 31.7713 368.686V368.686C42.803 343.773 37.67 314.662 18.7829 295.025V295.025C-12.7292 262.261 -3.21486 208.303 37.6027 188.293V188.293C62.0671 176.299 76.847 150.7 75.0013 123.516V123.516C71.9217 78.1623 113.894 42.9434 158.024 53.8518V53.8518C184.474 60.3899 212.251 50.2799 228.311 28.2697V28.2697Z" fill="#D0CDFE"/>
</svg>
